<svg width="60" height="360" viewBox="0 0 60 360" fill="none" xmlns="http://www.w3.org/2000/svg">
<path fill-rule="evenodd" clip-rule="evenodd" d="M51.19 323.62L58.58 331L58.58 331.01L51.2 338.38C47.4326 334.843 42.8396 332.306 37.84 331C42.836 329.692 47.4254 327.155 51.19 323.62ZM60 329.6L60 332.43L52.62 339.8C56.1567 343.567 58.6939 348.16 60 353.16L60 360L58.98 360C58.7489 353.001 55.9842 346.324 51.2 341.21L32.41 360L27.57 360L8.79 341.22C4.01165 346.333 1.2508 353.006 1.02 360L0 360L-2.98986e-07 353.16C1.30768 348.164 3.84473 343.575 7.38 339.81L-1.20512e-06 332.43L-1.32926e-06 329.59L7.38 322.2C3.84328 318.433 1.30614 313.84 -2.23627e-06 308.84L-2.62268e-06 300L-2.98986e-07 293.16C1.30768 288.164 3.84473 283.575 7.38 279.81L-1.20512e-06 272.43L-1.32926e-06 269.59L7.38 262.2C3.84328 258.433 1.30614 253.84 -2.23627e-06 248.84L-2.62268e-06 240L-2.98986e-07 233.16C1.30768 228.164 3.84473 223.575 7.38 219.81L-1.20512e-06 212.43L-1.32926e-06 209.59L7.38 202.2C3.84328 198.433 1.30614 193.84 -2.23627e-06 188.84L-2.62268e-06 180L-2.98986e-07 173.16C1.30768 168.164 3.84473 163.575 7.38 159.81L-1.20512e-06 152.43L-1.32926e-06 149.59L7.38 142.2C3.84328 138.433 1.30614 133.84 -2.23628e-06 128.84L-2.62268e-06 120L-2.98986e-07 113.16C1.30768 108.164 3.84473 103.575 7.38 99.81L-1.20512e-06 92.43L-1.32926e-06 89.59L7.38 82.2C3.84328 78.4326 1.30614 73.8396 -2.23627e-06 68.84L-2.62268e-06 60L-2.98986e-07 53.16C1.30768 48.164 3.84473 43.5746 7.38 39.81L-1.20512e-06 32.43L-1.32926e-06 29.59L7.38 22.2C3.84328 18.4326 1.30614 13.8396 -2.23627e-06 8.84L-2.62268e-06 0L27.57 -1.20512e-06L27.58 -1.20556e-06L60 -2.62268e-06L60 8.83999C58.6896 13.8451 56.1454 18.4419 52.6 22.21L59.995 29.595L60 29.59L60 29.6L60 32.43L52.62 39.8C56.1567 43.5674 58.6939 48.1604 60 53.16L60 60L60 68.84C58.6896 73.8451 56.1454 78.4419 52.6 82.21L59.995 89.595L60 89.59L60 89.6L60 92.43L52.62 99.8C56.1567 103.567 58.6939 108.16 60 113.16L60 120L60 128.84C58.6896 133.845 56.1454 138.442 52.6 142.21L59.995 149.595L60 149.59L60 149.6L60 152.43L52.62 159.8C56.1567 163.567 58.6939 168.16 60 173.16L60 180L60 188.84C58.6896 193.845 56.1454 198.442 52.6 202.21L59.995 209.595L60 209.59L60 209.6L60 212.43L52.62 219.8C56.1567 223.567 58.6939 228.16 60 233.16L60 240L60 248.84C58.6896 253.845 56.1454 258.442 52.6 262.21L59.995 269.595L60 269.59L60 269.6L60 272.43L52.62 279.8C56.1567 283.567 58.6939 288.16 60 293.16L60 300L60 308.84C58.6896 313.845 56.1454 318.442 52.6 322.21L59.995 329.595L60 329.59L60 329.6ZM58.98 60C58.7489 53.0009 55.9842 46.3239 51.2 41.21L32.41 60L58.98 60ZM27.57 60L8.79 41.22C4.01165 46.3328 1.2508 53.0057 1.02 60L27.57 60ZM27.57 120L1.02 120C1.2508 113.006 4.01165 106.333 8.79 101.22L27.57 120ZM58.98 120L32.41 120L51.2 101.21C55.9842 106.324 58.7489 113.001 58.98 120ZM58.98 180C58.7489 173.001 55.9842 166.324 51.2 161.21L32.41 180L58.98 180ZM27.57 180L8.79 161.22C4.01165 166.333 1.2508 173.006 1.02 180L27.57 180ZM27.57 240L1.02 240C1.2508 233.006 4.01165 226.333 8.79 221.22L27.57 240ZM58.98 240L32.41 240L51.2 221.21C55.9842 226.324 58.7489 233.001 58.98 240ZM58.98 300C58.7489 293.001 55.9842 286.324 51.2 281.21L32.41 300L58.98 300ZM27.57 300L8.79 281.22C4.01165 286.333 1.2508 293.006 1.02 300L27.57 300ZM8.79 338.4L1.41 331L1.4 331L8.8 323.62C12.5674 327.157 17.1604 329.694 22.16 331C17.1549 332.31 12.5581 334.855 8.79 338.4ZM8.8 320.8C4.00625 315.687 1.2342 309.005 0.999997 302L1.02 302L27.58 302L8.8 320.8ZM29 329.98C21.9974 329.751 15.3164 326.986 10.2 322.2L10.21 322.2L29 303.42L29 329.98ZM49.79 322.21C44.6747 326.991 37.9978 329.752 31 329.98L31 303.42L49.79 322.21ZM59 302C58.7658 309.005 55.9937 315.687 51.2 320.8L51.19 320.8L32.4 302L59 302ZM49.7948 339.795C44.6791 335.012 38.0002 332.249 31 332.02L31 358.59L49.7948 339.795ZM10.2 339.8C15.3164 335.014 21.9974 332.249 29 332.02L29 358.59L10.2 339.8ZM51.19 263.62L58.58 271L58.58 271.01L51.2 278.38C47.4326 274.843 42.8396 272.306 37.84 271C42.836 269.692 47.4254 267.155 51.19 263.62ZM8.79 278.4L1.41 271L1.4 271L8.8 263.62C12.5674 267.157 17.1604 269.694 22.16 271C17.1549 272.31 12.5581 274.855 8.79 278.4ZM8.8 260.8C4.00625 255.687 1.2342 249.005 0.999997 242L1.02 242L27.58 242L8.8 260.8ZM29 269.98C21.9974 269.751 15.3164 266.986 10.2 262.2L10.21 262.2L29 243.42L29 269.98ZM49.79 262.21C44.6747 266.991 37.9978 269.752 31 269.98L31 243.42L49.79 262.21ZM59 242C58.7658 249.005 55.9938 255.687 51.2 260.8L51.19 260.8L32.4 242L59 242ZM49.7948 279.795C44.6791 275.012 38.0002 272.249 31 272.02L31 298.59L49.7948 279.795ZM10.2 279.8C15.3164 275.014 21.9974 272.249 29 272.02L29 298.59L10.2 279.8ZM58.58 211L51.19 203.62C47.4254 207.155 42.836 209.692 37.84 211C42.8396 212.306 47.4326 214.843 51.2 218.38L58.58 211.01L58.58 211ZM1.41 211L8.79 218.4C12.5581 214.855 17.1549 212.31 22.16 211C17.1604 209.694 12.5674 207.157 8.8 203.62L1.4 211L1.41 211ZM0.999997 182C1.2342 189.005 4.00625 195.687 8.8 200.8L27.58 182L1.02 182L0.999997 182ZM10.2 202.2C15.3164 206.986 21.9974 209.751 29 209.98L29 183.42L10.21 202.2L10.2 202.2ZM31 209.98C37.9978 209.752 44.6746 206.991 49.79 202.21L31 183.42L31 209.98ZM51.2 200.8C55.9938 195.687 58.7658 189.005 59 182L32.4 182L51.19 200.8L51.2 200.8ZM31 212.02C38.0002 212.249 44.6791 215.012 49.7948 219.795L31 238.59L31 212.02ZM29 212.02C21.9974 212.249 15.3164 215.014 10.2 219.8L29 238.59L29 212.02ZM51.19 143.62L58.58 151L58.58 151.01L51.2 158.38C47.4326 154.843 42.8396 152.306 37.84 151C42.836 149.692 47.4254 147.155 51.19 143.62ZM8.79 158.4L1.41 151L1.4 151L8.8 143.62C12.5674 147.157 17.1604 149.694 22.16 151C17.1549 152.31 12.5581 154.855 8.79 158.4ZM8.8 140.8C4.00625 135.687 1.2342 129.005 0.999997 122L1.02 122L27.58 122L8.8 140.8ZM29 149.98C21.9974 149.751 15.3164 146.986 10.2 142.2L10.21 142.2L29 123.42L29 149.98ZM49.79 142.21C44.6747 146.991 37.9978 149.752 31 149.98L31 123.42L49.79 142.21ZM59 122C58.7658 129.005 55.9937 135.687 51.2 140.8L51.19 140.8L32.4 122L59 122ZM49.7948 159.795C44.6791 155.012 38.0002 152.249 31 152.02L31 178.59L49.7948 159.795ZM10.2 159.8C15.3164 155.014 21.9974 152.249 29 152.02L29 178.59L10.2 159.8ZM58.58 91L51.19 83.62C47.4254 87.1553 42.836 89.6923 37.84 91C42.8396 92.3062 47.4326 94.8433 51.2 98.38L58.58 91.01L58.58 91ZM1.41 91L8.79 98.4C12.5581 94.8546 17.1549 92.3104 22.16 91C17.1604 89.6938 12.5674 87.1567 8.8 83.62L1.4 91L1.41 91ZM0.999997 62C1.2342 69.0052 4.00625 75.6866 8.8 80.8L27.58 62L1.02 62L0.999997 62ZM10.2 82.2C15.3164 86.9864 21.9974 89.7513 29 89.98L29 63.42L10.21 82.2L10.2 82.2ZM31 89.98C37.9978 89.7516 44.6747 86.9906 49.79 82.21L31 63.42L31 89.98ZM51.2 80.8C55.9938 75.6866 58.7658 69.0052 59 62L32.4 62L51.19 80.8L51.2 80.8ZM31 92.02C38.0002 92.2487 44.6791 95.0117 49.7948 99.7952L31 118.59L31 92.02ZM29 92.02C21.9974 92.2487 15.3164 95.0135 10.2 99.8L29 118.59L29 92.02ZM51.19 23.62L58.58 31L58.58 31.01L51.2 38.38C47.4326 34.8433 42.8396 32.3062 37.84 31C42.836 29.6923 47.4254 27.1553 51.19 23.62ZM8.79 38.4L1.41 31L1.4 31L8.8 23.62C12.5674 27.1567 17.1604 29.6938 22.16 31C17.1549 32.3104 12.5581 34.8546 8.79 38.4ZM8.8 20.8C4.00625 15.6866 1.2342 9.00519 0.999997 2L1.02 2L27.58 2L8.8 20.8ZM29 29.98C21.9974 29.7513 15.3164 26.9864 10.2 22.2L10.21 22.2L29 3.41998L29 29.98ZM49.79 22.21C44.6746 26.9906 37.9978 29.7516 31 29.98L31 3.41998L49.79 22.21ZM59 2C58.7658 9.00519 55.9938 15.6866 51.2 20.8L51.19 20.8L32.4 2L59 2ZM49.7948 39.7952C44.6791 35.0117 38.0002 32.2487 31 32.02L31 58.59L49.7948 39.7952ZM10.2 39.8C15.3164 35.0135 21.9974 32.2487 29 32.02L29 58.59L10.2 39.8Z" fill="url(#paint0_linear_21_1186)"/>
<defs>
<linearGradient id="paint0_linear_21_1186" x1="30" y1="-1.07418e-06" x2="30" y2="360" gradientUnits="userSpaceOnUse">
<stop stop-color="#164469"/>
<stop offset="1" stop-color="#164469" stop-opacity="0"/>
</linearGradient>
</defs>
</svg>
