<svg width="60" height="60" viewBox="0 0 60 60" fill="none" xmlns="http://www.w3.org/2000/svg">
<g clip-path="url(#clip0_21_1072)">
<path d="M29 58.58L36.38 51.19C32.8447 47.4254 30.3077 42.836 29 37.84C27.6939 42.8396 25.1567 47.4326 21.62 51.2L28.99 58.58H29ZM30.4 59.99L30.41 60H27.57L20.2 52.62C16.4326 56.1567 11.8396 58.6939 6.84 60H0V58.98C6.99907 58.7489 13.6761 55.9842 18.79 51.2L0 32.41V27.57L18.78 8.79C13.6672 4.01165 6.99427 1.2508 0 1.02V0H6.84C11.836 1.30768 16.4254 3.84473 20.19 7.38L27.57 0H30.41L37.8 7.38C41.5674 3.84329 46.1604 1.30614 51.16 0L60 0V27.58V27.57V60H51.16C46.1549 58.6896 41.5581 56.1454 37.79 52.6L30.4 60V59.99ZM29 1.41L21.6 8.79C25.1454 12.5581 27.6896 17.1549 29 22.16C30.3061 17.1604 32.8433 12.5674 36.38 8.8L29 1.4V1.41ZM58 1C50.9948 1.2342 44.3135 4.00625 39.2 8.8L58 27.58V1.02V1ZM37.8 10.2C33.0135 15.3164 30.2487 21.9974 30.02 29H56.58L37.8 10.21V10.2ZM30.02 31C30.2484 37.9978 33.0094 44.6747 37.79 49.79L56.58 31H30.02ZM39.2 51.2C44.3135 55.9938 50.9948 58.7658 58 59V32.4L39.2 51.19V51.2ZM20.2 49.8C24.9865 44.6836 27.7513 38.0026 27.98 31H1.41L20.21 49.8H20.2ZM27.98 29C27.7513 21.9974 24.9865 15.3164 20.2 10.2L1.41 29H27.98Z" fill="#0E2C43"/>
</g>
<defs>
<clipPath id="clip0_21_1072">
<rect width="60" height="60" fill="white"/>
</clipPath>
</defs>
</svg>
