<svg width="300" height="60" viewBox="0 0 300 60" fill="none" xmlns="http://www.w3.org/2000/svg">
<path fill-rule="evenodd" clip-rule="evenodd" d="M29 58.58L36.38 51.19C32.8447 47.4254 30.3077 42.836 29 37.84C27.6939 42.8396 25.1567 47.4326 21.62 51.2L28.99 58.58H29ZM27.57 60H30.4H30.41L30.405 59.995L37.79 52.6C41.5581 56.1454 46.1549 58.6896 51.16 60H60H66.84C71.8396 58.6939 76.4326 56.1567 80.2 52.62L87.57 60H90.4H90.41L90.405 59.995L97.79 52.6C101.558 56.1454 106.155 58.6896 111.16 60H120H126.84C131.84 58.6939 136.433 56.1567 140.2 52.62L147.57 60H150.4H150.41L150.405 59.995L157.79 52.6C161.558 56.1454 166.155 58.6896 171.16 60H180H186.84C191.84 58.6939 196.433 56.1567 200.2 52.62L207.57 60H210.4H210.41L210.405 59.995L217.79 52.6C221.558 56.1454 226.155 58.6896 231.16 60H240H246.84C251.84 58.6939 256.433 56.1567 260.2 52.62L267.57 60H270.4H270.41L270.405 59.995L277.79 52.6C281.558 56.1454 286.155 58.6896 291.16 60H300V27.58V27.57V0H291.16C286.16 1.30614 281.567 3.84329 277.8 7.38L270.41 0H267.57L260.19 7.38C256.425 3.84473 251.836 1.30768 246.84 0H240H231.16C226.16 1.30614 221.567 3.84329 217.8 7.38L210.41 0H207.57L200.19 7.38C196.425 3.84473 191.836 1.30768 186.84 0H180H171.16C166.16 1.30614 161.567 3.84329 157.8 7.38L150.41 0H147.57L140.19 7.38C136.425 3.84473 131.836 1.30768 126.84 0H120H111.16C106.16 1.30614 101.567 3.84329 97.8 7.38L90.41 0H87.57L80.19 7.38C76.4254 3.84473 71.836 1.30768 66.84 0H60H51.16C46.1604 1.30614 41.5674 3.84329 37.8 7.38L30.41 0H27.57L20.19 7.38C16.4254 3.84473 11.836 1.30768 6.84 0H0V1.02C6.99427 1.2508 13.6672 4.01165 18.78 8.79L0 27.57V32.41L18.79 51.2C13.6761 55.9842 6.99907 58.7489 0 58.98V60H6.84C11.8396 58.6939 16.4326 56.1567 20.2 52.62L27.57 60ZM240 1.02V27.57L258.78 8.79C253.667 4.01165 246.994 1.2508 240 1.02ZM240 32.41V58.98C246.999 58.7489 253.676 55.9842 258.79 51.2L240 32.41ZM78.79 51.2C73.6761 55.9842 66.9991 58.7489 60 58.98V32.41L78.79 51.2ZM78.78 8.79L60 27.57V1.02C66.9943 1.2508 73.6672 4.01165 78.78 8.79ZM29 1.41L21.6 8.79C25.1454 12.5581 27.6896 17.1549 29 22.16C30.3061 17.1604 32.8433 12.5674 36.38 8.8L29 1.4V1.41ZM58 1C50.9948 1.2342 44.3135 4.00625 39.2 8.8L58 27.58V1.02V1ZM37.8 10.2C33.0135 15.3164 30.2487 21.9974 30.02 29H56.58L37.8 10.21V10.2ZM30.02 31C30.2484 37.9978 33.0094 44.6747 37.79 49.79L56.58 31H30.02ZM39.2 51.2C44.3135 55.9938 50.9948 58.7658 58 59V32.4L39.2 51.19V51.2ZM27.98 31C27.7513 38.0002 24.9883 44.6791 20.2048 49.7948L1.41 31H27.98ZM27.98 29C27.7513 21.9974 24.9865 15.3164 20.2 10.2L1.41 29H27.98ZM89 58.58L96.38 51.19C92.8447 47.4254 90.3077 42.836 89 37.84C87.6939 42.8396 85.1567 47.4326 81.62 51.2L88.99 58.58H89ZM180 1.02V27.57L198.78 8.79C193.667 4.01165 186.994 1.2508 180 1.02ZM180 32.41V58.98C186.999 58.7489 193.676 55.9842 198.79 51.2L180 32.41ZM138.79 51.2C133.676 55.9842 126.999 58.7489 120 58.98V32.41L138.79 51.2ZM138.78 8.79L120 27.57V1.02C126.994 1.2508 133.667 4.01165 138.78 8.79ZM89 1.41L81.6 8.79C85.1454 12.5581 87.6896 17.1549 89 22.16C90.3061 17.1604 92.8433 12.5674 96.38 8.8L89 1.4V1.41ZM118 1C110.995 1.2342 104.313 4.00625 99.2 8.8L118 27.58V1.02V1ZM97.8 10.2C93.0135 15.3164 90.2487 21.9974 90.02 29H116.58L97.8 10.21V10.2ZM90.02 31C90.2484 37.9978 93.0094 44.6747 97.79 49.79L116.58 31H90.02ZM99.2 51.2C104.313 55.9938 110.995 58.7658 118 59V32.4L99.2 51.19V51.2ZM87.98 31C87.7513 38.0002 84.9883 44.6791 80.2048 49.7948L61.41 31H87.98ZM87.98 29C87.7513 21.9974 84.9865 15.3164 80.2 10.2L61.41 29H87.98ZM149 58.58L156.38 51.19C152.845 47.4254 150.308 42.836 149 37.84C147.694 42.8396 145.157 47.4326 141.62 51.2L148.99 58.58H149ZM149 1.41L141.6 8.79C145.145 12.5581 147.69 17.1549 149 22.16C150.306 17.1604 152.843 12.5674 156.38 8.8L149 1.4V1.41ZM178 1C170.995 1.2342 164.313 4.00625 159.2 8.8L178 27.58V1.02V1ZM157.8 10.2C153.014 15.3164 150.249 21.9974 150.02 29H176.58L157.8 10.21V10.2ZM150.02 31C150.248 37.9978 153.009 44.6747 157.79 49.79L176.58 31H150.02ZM159.2 51.2C164.313 55.9938 170.995 58.7658 178 59V32.4L159.2 51.19V51.2ZM147.98 31C147.751 38.0002 144.988 44.6791 140.205 49.7948L121.41 31H147.98ZM147.98 29C147.751 21.9974 144.986 15.3164 140.2 10.2L121.41 29H147.98ZM216.38 51.19L209 58.58H208.99L201.62 51.2C205.157 47.4326 207.694 42.8396 209 37.84C210.308 42.836 212.845 47.4254 216.38 51.19ZM201.6 8.79L209 1.41V1.4L216.38 8.8C212.843 12.5674 210.306 17.1604 209 22.16C207.69 17.1549 205.145 12.5581 201.6 8.79ZM219.2 8.8C224.313 4.00625 230.995 1.2342 238 1V1.02V27.58L219.2 8.8ZM210.02 29C210.249 21.9974 213.014 15.3164 217.8 10.2V10.21L236.58 29H210.02ZM217.79 49.79C213.009 44.6747 210.248 37.9978 210.02 31H236.58L217.79 49.79ZM238 59C230.995 58.7658 224.313 55.9938 219.2 51.2V51.19L238 32.4V59ZM200.205 49.7948C204.988 44.6791 207.751 38.0002 207.98 31H181.41L200.205 49.7948ZM200.2 10.2C204.986 15.3164 207.751 21.9974 207.98 29H181.41L200.2 10.2ZM276.38 51.19L269 58.58H268.99L261.62 51.2C265.157 47.4326 267.694 42.8396 269 37.84C270.308 42.836 272.845 47.4254 276.38 51.19ZM261.6 8.79L269 1.41V1.4L276.38 8.8C272.843 12.5674 270.306 17.1604 269 22.16C267.69 17.1549 265.145 12.5581 261.6 8.79ZM279.2 8.8C284.313 4.00625 290.995 1.2342 298 1V1.02V27.58L279.2 8.8ZM270.02 29C270.249 21.9974 273.014 15.3164 277.8 10.2V10.21L296.58 29H270.02ZM277.79 49.79C273.009 44.6747 270.248 37.9978 270.02 31H296.58L277.79 49.79ZM298 59C290.995 58.7658 284.313 55.9938 279.2 51.2V51.19L298 32.4V59ZM260.205 49.7948C264.988 44.6791 267.751 38.0002 267.98 31H241.41L260.205 49.7948ZM260.2 10.2C264.986 15.3164 267.751 21.9974 267.98 29H241.41L260.2 10.2Z" fill="url(#paint0_linear_112_11)"/>
<defs>
<linearGradient id="paint0_linear_112_11" x1="5.58793e-07" y1="30" x2="300" y2="30" gradientUnits="userSpaceOnUse">
<stop stop-color="#E26D5A"/>
<stop offset="1" stop-color="#E26D5A" stop-opacity="0"/>
</linearGradient>
</defs>
</svg>
